<svg width="16" height="16" viewBox="0 0 16 16" fill="none" xmlns="http://www.w3.org/2000/svg">
<path fill-rule="evenodd" clip-rule="evenodd" d="M12.2778 6.7781V4.93939C12.2778 2.57898 10.3626 0.666992 8 0.666992C5.64227 0.666992 3.72222 2.57977 3.72222 4.93939V6.7781H3.10708C2.77194 6.7781 2.5 7.05359 2.5 7.39337V14.7183C2.5 15.0587 2.77182 15.3337 3.10708 15.3337H12.8929C13.2281 15.3337 13.5 15.0582 13.5 14.7183V7.39337C13.5 7.0531 13.2282 6.7781 12.8929 6.7781H12.2778ZM11.0556 6.7781V4.93872C11.0556 3.26012 9.68752 1.88921 8 1.88921C6.3159 1.88921 4.94444 3.2545 4.94444 4.93872V6.7781H11.0556ZM5.55556 10.4448H10.4444L9.22222 11.667H5.55556V10.4448Z" fill="#043263"/>
</svg>
