<svg width="64" height="15" viewBox="0 0 64 15" fill="none" xmlns="http://www.w3.org/2000/svg">
<g clip-path="url(#clip0_1254_14463)">
<path d="M17.9985 6.87631C17.9985 5.6219 17.5387 4.83274 16.4704 4.83274C15.8628 4.83274 15.3112 5.18511 14.9132 5.56684V8.34361C15.432 8.80885 15.8628 9.03367 16.5003 9.03367C17.4943 9.03367 17.9985 8.2445 17.9985 6.87814M12.5234 13.6127V3.11309H14.7345L14.9123 4.25463C15.431 3.57833 16.168 2.95801 17.3455 2.95801C19.1403 2.95801 20.3864 4.26931 20.3864 6.86163C20.3864 9.45395 19.1248 10.7368 17.3156 10.7368C16.2472 10.7368 15.5054 10.3697 14.9123 9.73658V13.2741L12.5234 13.6127Z" fill="#004481"/>
<path d="M26.6753 6.14318C26.5564 5.08606 26.0522 4.5832 25.1616 4.5832C24.4197 4.5832 23.7822 5.04844 23.6035 6.14318H26.6753ZM21.2011 6.87729C21.2011 3.96012 23.5446 2.95898 25.177 2.95898C26.8095 2.95898 28.811 3.73439 28.811 7.14432V7.48292H23.5745C23.6933 8.72265 24.4197 9.20257 25.4098 9.20257C26.2803 9.19061 27.1193 8.89151 27.7832 8.35651L28.6738 9.65772C27.7542 10.4047 26.6115 10.7855 25.2321 10.7855C23.1698 10.7855 21.1973 9.78435 21.1973 6.88187" fill="#004481"/>
<path d="M30.0566 10.6248V3.11309H32.2668L32.4455 4.29684C32.9198 3.70496 33.7978 2.95801 35.1753 2.95801C36.5102 2.95801 37.4743 3.59209 37.4743 5.1429V10.6248H35.1009V5.8614C35.1009 5.18511 34.8333 4.83274 34.1659 4.83274C33.5283 4.83274 32.9796 5.1429 32.4455 5.57969V10.6267L30.0566 10.6248Z" fill="#004481"/>
<path d="M44.5346 6.87637C44.5346 5.62196 44.0748 4.83279 43.0074 4.83279C42.3989 4.83279 41.8483 5.18517 41.4493 5.5669V8.34367C41.969 8.80891 42.3989 9.03373 43.0364 9.03373C44.0304 9.03373 44.5346 8.24456 44.5346 6.8782M39.0566 13.6127V3.11315H41.2677L41.4455 4.25469C41.969 3.57839 42.7109 2.95898 43.8865 2.95898C45.6812 2.95898 46.9273 4.27028 46.9273 6.8626C46.9273 9.45492 45.6658 10.7378 43.8565 10.7378C42.7882 10.7378 42.0463 10.3707 41.4532 9.73755V13.275L39.0566 13.6127Z" fill="#14C8BE"/>
<path d="M52.6628 8.38398V6.98826C50.7791 7.17179 49.9783 7.62326 49.9783 8.31333C49.9783 8.79233 50.3338 9.03183 50.8535 9.03183C51.6842 9.03183 52.2628 8.7648 52.6628 8.38398ZM47.6533 8.70791C47.6533 6.9745 49.1988 6.01649 52.6676 5.74854V5.56501C52.6676 5.01443 52.3421 4.66297 51.4814 4.66297C50.5917 4.66297 49.8392 5.05756 49.1824 5.55124L47.8919 4.32528C48.6772 3.63431 49.8644 2.95801 51.8224 2.95801C54.0779 2.95801 54.9975 3.97291 54.9975 5.90362V10.6248H52.8415L52.6628 9.52369C51.9364 10.2982 51.0757 10.7359 49.904 10.7359C48.6878 10.7359 47.6484 9.98893 47.6484 8.70607" fill="#14C8BE"/>
<path d="M56.3405 13.387L56.1628 11.4985C56.6216 11.6199 57.0957 11.6817 57.5721 11.682C58.0908 11.682 58.3883 11.4985 58.5806 11.0332L58.7293 10.6662L55.7773 3.28197L58.1208 2.94336L59.9011 7.99035H59.931L61.6813 3.11404H63.9996L60.6767 11.415C60.1425 12.7116 59.4152 13.5007 57.8281 13.5007C57.3314 13.5108 56.8349 13.473 56.3463 13.3879" fill="#14C8BE"/>
<path d="M5.69919 0C2.55162 0 0 2.42395 0 5.41405C0 8.40414 2.55162 10.8281 5.69919 10.8281C8.84677 10.8281 11.3984 8.40414 11.3984 5.41405C11.3984 3.97815 10.7979 2.60107 9.72913 1.58574C8.66033 0.570407 7.21071 0 5.69919 0ZM5.59487 8.62577C3.72157 8.59591 2.21941 7.14478 2.21941 5.36495C2.21941 3.58513 3.72157 2.13399 5.59487 2.10414H9.02501V5.36541C9.02578 6.23036 8.66482 7.06016 8.02155 7.67229C7.37827 8.28441 6.50537 8.62871 5.59487 8.62944V8.62577Z" fill="#004481"/>
<path d="M9.02819 5.3687C9.02819 7.16985 7.49116 8.62997 5.59515 8.62997C3.69913 8.62997 2.16211 7.16985 2.16211 5.3687C2.16211 3.56754 3.69913 2.10742 5.59515 2.10742H9.02529L9.02819 5.3687Z" fill="#14C8BE"/>
<path d="M52.9861 12.0364L52.1109 13.6194C52.0962 13.6434 52.0638 13.6516 52.0384 13.6377C52.0306 13.633 52.024 13.6268 52.0191 13.6194L51.143 12.0364C51.1342 12.0208 51.1172 12.011 51.0986 12.0107H50.6755C50.6652 12.011 50.6555 12.0151 50.6484 12.0221C50.6414 12.0292 50.6375 12.0386 50.6378 12.0484C50.6364 12.0535 50.6364 12.0589 50.6378 12.064L52.0162 14.515C52.0252 14.5306 52.0424 14.5403 52.0611 14.5403C52.0799 14.5403 52.0971 14.5306 52.1061 14.515L53.4845 12.064C53.4892 12.0552 53.49 12.045 53.4867 12.0357C53.4834 12.0264 53.4764 12.0187 53.4671 12.0144C53.4617 12.0135 53.4561 12.0135 53.4507 12.0144H53.0266C53.008 12.0147 52.991 12.0245 52.9822 12.0401" fill="#004481"/>
<path d="M53.4808 14.1484L54.3559 12.5664C54.3616 12.554 54.3723 12.5444 54.3856 12.5397C54.3989 12.535 54.4137 12.5357 54.4264 12.5416C54.4382 12.5463 54.4475 12.5552 54.4525 12.5664L55.3286 14.1484C55.3374 14.164 55.3545 14.1738 55.3731 14.1741H55.7962C55.8062 14.1743 55.8159 14.1708 55.8231 14.1642C55.8303 14.1577 55.8346 14.1487 55.8348 14.1392C55.8347 14.1328 55.833 14.1265 55.83 14.1208L54.4516 11.6698C54.4426 11.6542 54.4253 11.6445 54.4066 11.6445C54.3879 11.6445 54.3707 11.6542 54.3617 11.6698L52.9833 14.1208C52.9732 14.1381 52.9797 14.1598 52.9978 14.1695C53.0038 14.1724 53.0104 14.1739 53.0171 14.1741H53.4412C53.4598 14.1738 53.4768 14.164 53.4856 14.1484" fill="#004481"/>
<path d="M46.9371 14.1737H46.1489C46.1356 14.174 46.1227 14.1692 46.1131 14.1604C46.1035 14.1516 46.098 14.1396 46.0977 14.1269V13.4552C46.0977 13.4284 46.1206 13.4066 46.1489 13.4066H46.9371C47.3129 13.4066 47.481 13.5075 47.481 13.7911C47.481 14.0746 47.3168 14.1746 46.9371 14.1746M46.1489 12.3779H46.9265C47.2163 12.3779 47.3593 12.4945 47.3593 12.7092C47.3593 12.9239 47.2144 13.0404 46.9265 13.0404H46.1489C46.1212 13.0404 46.0987 13.0191 46.0987 12.9927V12.4265C46.0987 12.4002 46.1212 12.3788 46.1489 12.3788M47.5013 13.1799C47.6943 13.0796 47.8096 12.883 47.7978 12.6743C47.7978 12.2806 47.4752 12.0127 47.0183 12.0127H45.7084C45.6807 12.0127 45.6582 12.0341 45.6582 12.0604V14.494C45.6582 14.5203 45.6807 14.5417 45.7084 14.5417H46.9642C47.5921 14.5417 47.9234 14.2848 47.9234 13.7828C47.9415 13.5154 47.7708 13.269 47.5051 13.179" fill="#004481"/>
<path d="M49.6276 14.1736H48.8384C48.8106 14.1736 48.7881 14.1522 48.7881 14.1259V13.4542C48.7879 13.4415 48.7929 13.4293 48.8022 13.4202C48.8114 13.411 48.8241 13.4058 48.8374 13.4055H49.6276C50.0033 13.4055 50.1714 13.5065 50.1714 13.79C50.1714 14.0736 50.0072 14.1736 49.6276 14.1736ZM48.8393 12.3769H49.6169C49.9067 12.3769 50.0497 12.4934 50.0497 12.7081C50.0497 12.9229 49.9038 13.0394 49.6169 13.0394H48.8393C48.8111 13.0394 48.7881 13.0176 48.7881 12.9908V12.4246C48.7881 12.4119 48.7934 12.3998 48.8028 12.3909C48.8123 12.3819 48.825 12.3769 48.8384 12.3769M50.1907 13.178C50.3837 13.0777 50.499 12.8811 50.4873 12.6724C50.4873 12.2787 50.1637 12.0107 49.7068 12.0107H48.3989C48.3706 12.0107 48.3477 12.0325 48.3477 12.0594V14.4929C48.3477 14.5056 48.3529 14.5177 48.3624 14.5267C48.3718 14.5356 48.3846 14.5407 48.3979 14.5407H49.6536C50.2815 14.5407 50.6119 14.2837 50.6119 13.7818C50.6305 13.5145 50.4601 13.268 50.1946 13.178" fill="#004481"/>
<path d="M43.1665 13.9456C43.1665 13.618 42.9946 13.4593 42.785 13.4593C42.6304 13.4593 42.5203 13.5345 42.3986 13.6538V14.2383C42.4953 14.3531 42.6391 14.4229 42.7936 14.4301C43.0033 14.4301 43.1704 14.2833 43.1704 13.9456M42.3976 14.3787L42.3928 14.5412H42.2324V12.8784L42.3976 12.8555V13.5226C42.4989 13.4003 42.653 13.3281 42.8168 13.3262C43.1066 13.3262 43.3336 13.5272 43.3336 13.9438C43.3336 14.3604 43.1028 14.5614 42.812 14.5614C42.6528 14.5586 42.5022 14.4919 42.3976 14.3778" fill="#004481"/>
<path d="M43.4608 14.9805L43.4492 14.8447C43.5087 14.8585 43.5696 14.8656 43.6308 14.8658C43.7526 14.8725 43.8618 14.7951 43.8897 14.6823L43.9419 14.5511L43.4589 13.3682L43.6231 13.3389L44.0191 14.3593L44.4055 13.3545H44.5775L44.0365 14.6823C43.9506 14.8952 43.8578 14.9998 43.6173 14.9998C43.5611 15.0016 43.5048 14.9961 43.4502 14.9833" fill="#004481"/>
</g>
<defs>
<clipPath id="clip0_1254_14463">
<rect width="64" height="15" fill="white"/>
</clipPath>
</defs>
</svg>
