<svg width="70" height="70" viewBox="0 0 70 70" fill="none" xmlns="http://www.w3.org/2000/svg">
<rect x="1" y="1" width="68" height="68" rx="34" stroke="#2DCCCD" stroke-width="2"/>
<circle cx="35" cy="35.5" r="28" fill="#004481"/>
<path fill-rule="evenodd" clip-rule="evenodd" d="M36.0659 42.2828V44.5335L33.9326 43.4668V42.3574C32.8232 42.2507 31.8526 41.9521 30.9992 41.5362L31.3512 39.3387C32.3859 39.9574 33.6659 40.4482 34.8926 40.4482C35.9806 40.4482 36.7272 39.9254 36.7272 38.9228C36.7272 37.9948 36.3006 37.6215 34.5192 36.8428C32.1299 35.8508 31.1699 35.0508 31.1699 33.1095C31.1699 31.3068 32.2792 30.1228 33.9219 29.7387V27.4668L36.0552 28.5335V29.6428C36.9832 29.7387 37.6979 29.9948 38.3806 30.3575L38.0286 32.5335C37.1326 31.9362 36.0872 31.5521 35.1272 31.5521C33.9539 31.5521 33.4312 32.1282 33.4312 32.8962C33.4312 33.6962 33.8259 34.0695 35.5326 34.7948C38.0606 35.8508 38.9886 36.7362 38.9886 38.6774C38.9992 40.6935 37.8046 41.9095 36.0659 42.2828ZM34.9992 23.2002C27.9272 23.2002 22.1992 28.9282 22.1992 36.0002C22.1992 43.0721 27.9272 48.8002 34.9992 48.8002C42.0712 48.8002 47.7992 43.0721 47.7992 36.0002C47.7992 28.9282 42.0712 23.2002 34.9992 23.2002Z" fill="white"/>
</svg>
