<svg width="70" height="70" viewBox="0 0 70 70" fill="none" xmlns="http://www.w3.org/2000/svg">
<rect x="1" y="1" width="68" height="68" rx="34" stroke="#2DCCCD" stroke-width="2"/>
<circle cx="35" cy="35.5" r="28" fill="#004481"/>
<path fill-rule="evenodd" clip-rule="evenodd" d="M28.334 20.333V21.6663H29.6673L31.0007 20.333H32.334V21.6663H33.6673L35.0007 20.333H36.334V21.6663H37.6673L39.0007 20.333H40.334V21.6663H41.6673L43.0007 20.333H44.334C45.0704 20.333 45.6673 20.93 45.6673 21.6663V48.333C45.6673 49.0694 45.0704 49.6663 44.334 49.6663H41.6673V48.333H40.334L39.0007 49.6663H37.6673V48.333H36.334L35.0007 49.6663H33.6673V48.333H32.334L31.0007 49.6663H29.6673V48.333H28.334L27.0007 49.6663H25.6673C24.9309 49.6663 24.334 49.0694 24.334 48.333V21.6663C24.334 20.93 24.9309 20.333 25.6673 20.333H28.334ZM41.6673 37.6663H28.334V40.333H39.0007L41.6673 37.6663ZM37.6673 32.333H28.334V34.9997H35.0007L37.6673 32.333ZM41.6673 26.9997H28.334V29.6663H39.0007L41.6673 26.9997Z" fill="white"/>
</svg>
