<svg width="70" height="70" viewBox="0 0 70 70" fill="none" xmlns="http://www.w3.org/2000/svg">
<rect x="1" y="1" width="68" height="68" rx="34" stroke="#2DCCCD" stroke-width="2"/>
<circle cx="35" cy="35.5" r="28" fill="#004481"/>
<path fill-rule="evenodd" clip-rule="evenodd" d="M36.8801 21.4659C37.4097 21.4634 37.9185 21.6721 38.2939 22.0457C38.6693 22.4194 38.8804 22.9272 38.8804 23.4568V30.9826C38.8832 31.6463 39.2973 32.2386 39.9196 32.4692L48.5073 35.6813C49.1332 35.905 49.5466 36.5032 49.5346 37.1678V43.592C49.5332 43.8816 49.4549 44.1656 49.3076 44.4149L46 49.8967C45.7067 50.3756 45.1852 50.6673 44.6236 50.6665H38.5061C36.3484 50.6722 34.3336 49.6163 33.1091 47.8564L27.1032 38.6279C26.8627 38.2211 26.8022 37.7327 26.9361 37.2796C27.0701 36.8264 27.3864 36.4494 27.8093 36.2387C28.0487 36.124 28.311 36.065 28.5765 36.0662C28.9335 36.0653 29.28 36.1773 29.5675 36.3838L33.3455 39.415C33.5886 39.6854 33.9731 39.7784 34.3129 39.649C34.6528 39.5197 34.8781 39.1946 34.8799 38.831V23.4568C34.8799 22.9272 35.0909 22.4194 35.4663 22.0457C35.8417 21.6721 36.3505 21.4634 36.8801 21.4659ZM32.6779 21.4659C32.4244 21.9989 32.2762 22.575 32.2404 23.1623L32.2319 23.4568V24.1948C31.1716 24.4467 30.4227 25.3932 30.4215 26.4831C30.4144 29.1766 28.2969 31.3724 25.6368 31.507L25.3777 31.5135C24.135 31.5114 23.1133 32.465 23.0092 33.6819L23.0005 33.8761V36.0927H20.334V33.8761C20.3411 31.1826 22.4585 28.9868 25.1187 28.8522L25.3777 28.8457C26.6175 28.8436 27.6347 27.891 27.7383 26.6768L27.747 26.4831C27.755 23.749 29.9443 21.5214 32.6779 21.4659Z" fill="white"/>
</svg>
